<svg width="100" height="160" viewBox="0 0 100 160" fill="none" xmlns="http://www.w3.org/2000/svg">
<rect x="3" y="3" width="94" height="154" rx="7" fill="url(#paint0_linear_8_58)"/>
<rect x="3" y="3" width="94" height="154" rx="7" stroke="white" stroke-width="6"/>
<mask id="path-2-outside-1_8_58" maskUnits="userSpaceOnUse" x="13.1925" y="44.4853" width="72.832" height="72.832" fill="black">
<rect fill="white" x="13.1925" y="44.4853" width="72.832" height="72.832"/>
<path d="M34.7689 55.0139C34.7449 55.5187 34.837 56.0517 35.0454 56.6126C35.2618 57.1816 35.5984 57.6945 36.0552 58.1513C36.52 58.6161 37.0369 58.8926 37.6058 58.9807C38.1828 59.0769 38.6877 58.9086 39.1205 58.4759C39.5612 58.0351 39.7616 57.5463 39.7215 57.0093C39.6894 56.4804 39.5332 55.9475 39.2527 55.4106C38.9802 54.8816 38.7118 54.3407 38.4473 53.7877C38.1909 53.2428 38.0827 52.6618 38.1227 52.0447C38.1788 51.4277 38.4794 50.8467 39.0243 50.3017C39.7696 49.5564 40.571 49.2359 41.4285 49.34C42.294 49.4522 43.0553 49.8369 43.7124 50.494C44.618 51.3996 45.179 52.3372 45.3953 53.3069L44.1452 53.5954C43.9769 52.8501 43.5281 52.1128 42.7988 51.3836C42.4142 50.9989 41.9654 50.7665 41.4525 50.6864C40.9396 50.6062 40.4708 50.7785 40.0461 51.2033C39.5091 51.7402 39.3929 52.4094 39.6975 53.2107C39.8257 53.5634 39.99 53.928 40.1903 54.3046C40.3987 54.6893 40.587 55.086 40.7553 55.4947C40.9316 55.9114 41.0558 56.3241 41.1279 56.7328C41.3042 57.6625 40.9917 58.528 40.1903 59.3293C39.3969 60.1227 38.5435 60.4633 37.6299 60.3511C36.7323 60.2389 35.8949 59.7941 35.1175 59.0168C34.0837 57.983 33.5428 56.7048 33.4947 55.1822L34.7689 55.0139ZM43.9377 56.9942L44.7191 56.2128L45.6326 57.1264L47.7243 55.6118L48.3493 56.2369L46.5462 58.04L47.9527 59.4464L47.1713 60.2278L45.7649 58.8214L41.8461 62.7402C41.4053 63.1809 41.3653 63.5816 41.7259 63.9422C41.9984 64.2147 42.4111 64.395 42.964 64.4832L42.6875 65.4328C41.8541 65.3366 41.217 65.0682 40.7762 64.6274C40.3355 64.1867 40.1071 63.7499 40.091 63.3172C40.091 62.8844 40.3715 62.3875 40.9325 61.8266L44.8513 57.9078L43.9377 56.9942ZM52.9299 63.3178C53.0501 63.438 53.1704 63.5743 53.2906 63.7265C53.4268 63.8788 53.535 64.019 53.6151 64.1472L52.5092 64.9887C52.4291 64.8605 52.3329 64.7242 52.2207 64.58C52.1165 64.4438 52.0083 64.3195 51.8961 64.2073C51.6477 63.9589 51.3592 63.7746 51.0306 63.6544C50.7021 63.5342 50.3535 63.4821 49.9848 63.4981C49.6242 63.5061 49.2596 63.5903 48.8909 63.7506C48.5303 63.9188 48.1857 64.1673 47.8572 64.4958L44.4192 67.9338L43.3614 66.876L49.8045 60.4328L50.67 61.2983L49.6122 62.5966L49.6603 62.6446C50.0369 62.5405 50.4176 62.4884 50.8023 62.4884C51.1949 62.4804 51.5716 62.5445 51.9322 62.6807C52.3008 62.8089 52.6334 63.0213 52.9299 63.3178ZM51.9563 60.9016C52.0364 60.6131 52.0925 60.2765 52.1245 59.8919C52.1646 59.4992 52.1927 59.1025 52.2087 58.7018C52.2247 58.3011 52.2367 57.9525 52.2448 57.656L52.401 57.4997L53.1223 58.221C53.1944 58.5656 53.2465 58.9462 53.2785 59.363C53.3106 59.7797 53.3186 60.1964 53.3026 60.6131C53.7353 60.6131 54.1601 60.6292 54.5768 60.6612C54.9935 60.6933 55.3742 60.7454 55.7188 60.8175L56.4641 61.5628L56.3078 61.719C56.0033 61.719 55.6466 61.723 55.2379 61.7311C54.8372 61.7471 54.4365 61.7711 54.0359 61.8032C53.6512 61.8352 53.3186 61.8953 53.0381 61.9835L51.9563 60.9016ZM50.1662 74.0174C49.4449 73.2961 49.1003 72.4466 49.1324 71.469C49.1725 70.4993 49.6813 69.5256 50.659 68.5479C51.6367 67.5702 52.7186 67.0413 53.9047 66.9611C55.0907 66.881 56.1245 67.2817 57.006 68.1632C57.567 68.7242 57.8475 69.3493 57.8475 70.0385C57.8555 70.7197 57.6031 71.3167 57.0902 71.8296C56.5853 72.3345 55.856 72.5348 54.9024 72.4306C53.9567 72.3345 52.9831 71.7855 51.9813 70.7838C51.7169 70.5193 51.4484 70.2268 51.1759 69.9062C50.663 70.5313 50.4026 71.1364 50.3946 71.7214C50.3946 72.3144 50.6029 72.8193 51.0197 73.236C51.7169 73.9332 52.5142 74.2979 53.4118 74.3299L53.2555 75.3517C52.0615 75.3276 51.0317 74.8829 50.1662 74.0174ZM56.1525 68.9446C55.5996 68.3916 54.9425 68.1272 54.1811 68.1512C53.4278 68.1833 52.6946 68.4918 51.9813 69.0768C52.2057 69.3813 52.4782 69.6939 52.7987 70.0144C53.4879 70.7036 54.1451 71.1043 54.7702 71.2165C55.3952 71.3287 55.8761 71.2165 56.2127 70.8799C56.4611 70.6315 56.5853 70.323 56.5853 69.9543C56.6013 69.5857 56.4571 69.2491 56.1525 68.9446ZM62.4439 69.1294L63.3575 70.043L56.2652 77.1353C55.8245 77.576 55.7844 77.9767 56.145 78.3373C56.3774 78.5697 56.686 78.718 57.0706 78.7821L56.7821 79.7919C56.0609 79.6316 55.5039 79.3551 55.1112 78.9624C54.7186 78.5697 54.5182 78.153 54.5102 77.7123C54.5102 77.2795 54.7907 76.7827 55.3517 76.2217L62.4439 69.1294ZM59.1466 82.9978C58.4253 82.2765 58.0807 81.427 58.1128 80.4493C58.1529 79.4797 58.6617 78.506 59.6394 77.5283C60.6171 76.5506 61.699 76.0217 62.8851 75.9415C64.0711 75.8614 65.1049 76.2621 65.9864 77.1436C66.5474 77.7046 66.8279 78.3297 66.8279 79.0189C66.8359 79.7001 66.5835 80.2971 66.0706 80.81C65.5657 81.3148 64.8364 81.5152 63.8828 81.411C62.9371 81.3148 61.9635 80.7659 60.9617 79.7642C60.6973 79.4997 60.4288 79.2072 60.1563 78.8866C59.6434 79.5117 59.383 80.1168 59.375 80.7018C59.375 81.2948 59.5833 81.7997 60.0001 82.2164C60.6973 82.9136 61.4946 83.2782 62.3922 83.3103L62.2359 84.3321C61.0419 84.308 60.0121 83.8633 59.1466 82.9978ZM65.1329 77.925C64.58 77.372 63.9228 77.1076 63.1615 77.1316C62.4082 77.1637 61.675 77.4722 60.9617 78.0572C61.1861 78.3617 61.4586 78.6743 61.7791 78.9948C62.4683 79.684 63.1255 80.0847 63.7505 80.1969C64.3756 80.3091 64.8565 80.1969 65.193 79.8603C65.4415 79.6119 65.5657 79.3034 65.5657 78.9347C65.5817 78.5661 65.4375 78.2295 65.1329 77.925ZM72.2538 83.411C73.568 84.7253 73.3837 86.2238 71.7008 87.9068L68.0465 91.5611L67.1329 90.6475L70.7872 86.9932C71.9252 85.8552 72.0895 84.8815 71.2801 84.0721C70.8153 83.6073 70.1501 83.423 69.2846 83.5192C68.4271 83.6233 67.5657 84.0841 66.7002 84.9016L64.0436 87.5582L63.13 86.6446L67.9383 81.8362L69.0202 80.514L69.8737 81.2472L68.8639 82.7138C69.5451 82.5294 70.1862 82.5054 70.7872 82.6416C71.3883 82.7779 71.8771 83.0343 72.2538 83.411ZM71.813 95.6642C71.0918 94.943 70.7472 94.0935 70.7793 93.1158C70.8193 92.1461 71.3282 91.1724 72.3059 90.1948C73.2836 89.2171 74.3655 88.6881 75.5515 88.608C76.7376 88.5279 77.7714 88.9286 78.6529 89.8101C79.2139 90.3711 79.4943 90.9961 79.4943 91.6853C79.5024 92.3665 79.2499 92.9635 78.737 93.4764C78.2322 93.9813 77.5029 94.1817 76.5492 94.0775C75.6036 93.9813 74.6299 93.4324 73.6282 92.4306C73.3637 92.1662 73.0953 91.8737 72.8228 91.5531C72.3099 92.1782 72.0495 92.7832 72.0414 93.3682C72.0414 93.9613 72.2498 94.4662 72.6665 94.8829C73.3637 95.5801 74.1611 95.9447 75.0587 95.9768L74.9024 96.9985C73.7083 96.9745 72.6785 96.5297 71.813 95.6642ZM77.7994 90.5914C77.2464 90.0385 76.5893 89.774 75.828 89.7981C75.0747 89.8301 74.3414 90.1387 73.6282 90.7237C73.8526 91.0282 74.125 91.3407 74.4456 91.6613C75.1348 92.3505 75.7919 92.7512 76.417 92.8634C77.0421 92.9756 77.5229 92.8634 77.8595 92.5268C78.1079 92.2784 78.2322 91.9698 78.2322 91.6012C78.2482 91.2326 78.1039 90.896 77.7994 90.5914ZM81.8624 87.7064C82.1189 87.9629 82.1069 88.3756 81.8264 88.9446L77.8956 88.5479L77.9076 87.9589L80.8166 87.5021C81.3055 87.43 81.6541 87.4981 81.8624 87.7064ZM30.7442 73.2871C29.9268 74.1045 28.7929 74.2688 27.3423 73.7799L26.2484 78.0473L25.1906 76.9895L26.1643 73.227C25.6995 72.9705 25.1906 72.6139 24.6377 72.1571L22.498 74.2968L21.5844 73.3832L29.9989 64.9687L30.9125 65.8823L27.5587 69.2361C28.7848 68.9716 29.7906 69.2321 30.5759 70.0174C31.1529 70.5944 31.4374 71.1674 31.4294 71.7364C31.4294 72.3134 31.201 72.8303 30.7442 73.2871ZM29.7345 70.8108C29.2056 70.2819 28.5324 70.0655 27.715 70.1617C26.9056 70.2498 26.2364 70.5584 25.7075 71.0873L25.4431 71.3517C26.4047 72.1691 27.2662 72.654 28.0275 72.8062C28.7969 72.9505 29.3779 72.8263 29.7705 72.4336C30.0029 72.2012 30.1232 71.9448 30.1312 71.6643C30.1472 71.3758 30.015 71.0913 29.7345 70.8108ZM29.3355 81.471C28.6464 80.7818 28.3418 79.9564 28.422 78.9947C28.5021 78.033 29.031 77.0634 30.0087 76.0857C30.9944 75.1 32.0683 74.5791 33.2303 74.523C34.4083 74.4669 35.4101 74.8515 36.2355 75.677C37.0689 76.5104 37.5858 77.4921 37.7862 78.6221L33.5068 82.9015L32.4249 84.2238L31.5714 83.4905L32.4489 82.2043C31.2068 82.5489 30.169 82.3044 29.3355 81.471ZM30.9463 76.9752C30.2251 77.6965 29.8244 78.4017 29.7443 79.0909C29.6641 79.7801 29.8605 80.3611 30.3333 80.8339C30.8141 81.3147 31.4552 81.483 32.2566 81.3388C33.066 81.1865 33.9075 80.6736 34.781 79.8001L36.4519 78.1292C36.2515 77.5282 35.923 76.9993 35.4662 76.5425C34.8731 75.9494 34.1519 75.693 33.3024 75.7731C32.461 75.8453 31.6756 76.246 30.9463 76.9752ZM39.174 89.8189C38.1002 89.7388 37.1786 89.314 36.4092 88.5447C35.6479 87.7834 35.2713 86.8938 35.2793 85.8761C35.2953 84.8663 35.7922 83.8726 36.7699 82.8949C37.7556 81.9092 38.8054 81.3562 39.9193 81.236C41.0493 81.1158 42.059 81.5005 42.9486 82.39C43.5015 82.943 43.8701 83.6001 44.0545 84.3614L43.0928 84.8663C42.9005 84.2092 42.5879 83.6642 42.1552 83.2315C41.5622 82.6385 40.8649 82.39 40.0636 82.4862C39.2622 82.5824 38.4848 83.0071 37.7315 83.7604C36.9862 84.5057 36.5855 85.2269 36.5294 85.9241C36.4894 86.6214 36.7218 87.2224 37.2266 87.7273C37.8678 88.3684 38.613 88.729 39.4625 88.8091L39.174 89.8189ZM44.7552 96.554L43.8416 95.6404L47.4959 91.9861C48.6339 90.8481 48.7982 89.8745 47.9887 89.0651C47.5239 88.6002 46.8588 88.4159 45.9933 88.5121C45.1358 88.6163 44.2743 89.0771 43.4088 89.8945L40.7522 92.5511L39.8386 91.6375L48.2532 83.2229L49.1668 84.1365L45.5966 87.7067C46.2698 87.5144 46.8989 87.4863 47.4839 87.6226C48.0849 87.7588 48.5778 88.0192 48.9624 88.4039C50.2767 89.7182 50.0924 91.2168 48.4095 92.8997L44.7552 96.554ZM55.8049 95.2464C57.1192 96.5607 56.9349 98.0593 55.252 99.7422L51.5976 103.396L50.684 102.483L54.3384 98.8286C55.4763 97.6906 55.6406 96.7169 54.8312 95.9075C54.3664 95.4427 53.7013 95.2584 52.8358 95.3546C51.9783 95.4588 51.1168 95.9195 50.2513 96.737L47.5947 99.3936L46.6811 98.48L51.4894 93.6717L52.5713 92.3494L53.4248 93.0826L52.415 94.5492C53.0962 94.3649 53.7373 94.3408 54.3384 94.4771C54.9394 94.6133 55.4283 94.8697 55.8049 95.2464ZM51.9983 109.543L51.4815 108.497L54.5948 107.019L58.5737 98.3518L59.5594 99.3375L56.3499 106.177L63.1657 102.944L64.1274 103.905L51.9983 109.543Z"/>
</mask>
<path d="M34.7689 55.0139C34.7449 55.5187 34.837 56.0517 35.0454 56.6126C35.2618 57.1816 35.5984 57.6945 36.0552 58.1513C36.52 58.6161 37.0369 58.8926 37.6058 58.9807C38.1828 59.0769 38.6877 58.9086 39.1205 58.4759C39.5612 58.0351 39.7616 57.5463 39.7215 57.0093C39.6894 56.4804 39.5332 55.9475 39.2527 55.4106C38.9802 54.8816 38.7118 54.3407 38.4473 53.7877C38.1909 53.2428 38.0827 52.6618 38.1227 52.0447C38.1788 51.4277 38.4794 50.8467 39.0243 50.3017C39.7696 49.5564 40.571 49.2359 41.4285 49.34C42.294 49.4522 43.0553 49.8369 43.7124 50.494C44.618 51.3996 45.179 52.3372 45.3953 53.3069L44.1452 53.5954C43.9769 52.8501 43.5281 52.1128 42.7988 51.3836C42.4142 50.9989 41.9654 50.7665 41.4525 50.6864C40.9396 50.6062 40.4708 50.7785 40.0461 51.2033C39.5091 51.7402 39.3929 52.4094 39.6975 53.2107C39.8257 53.5634 39.99 53.928 40.1903 54.3046C40.3987 54.6893 40.587 55.086 40.7553 55.4947C40.9316 55.9114 41.0558 56.3241 41.1279 56.7328C41.3042 57.6625 40.9917 58.528 40.1903 59.3293C39.3969 60.1227 38.5435 60.4633 37.6299 60.3511C36.7323 60.2389 35.8949 59.7941 35.1175 59.0168C34.0837 57.983 33.5428 56.7048 33.4947 55.1822L34.7689 55.0139ZM43.9377 56.9942L44.7191 56.2128L45.6326 57.1264L47.7243 55.6118L48.3493 56.2369L46.5462 58.04L47.9527 59.4464L47.1713 60.2278L45.7649 58.8214L41.8461 62.7402C41.4053 63.1809 41.3653 63.5816 41.7259 63.9422C41.9984 64.2147 42.4111 64.395 42.964 64.4832L42.6875 65.4328C41.8541 65.3366 41.217 65.0682 40.7762 64.6274C40.3355 64.1867 40.1071 63.7499 40.091 63.3172C40.091 62.8844 40.3715 62.3875 40.9325 61.8266L44.8513 57.9078L43.9377 56.9942ZM52.9299 63.3178C53.0501 63.438 53.1704 63.5743 53.2906 63.7265C53.4268 63.8788 53.535 64.019 53.6151 64.1472L52.5092 64.9887C52.4291 64.8605 52.3329 64.7242 52.2207 64.58C52.1165 64.4438 52.0083 64.3195 51.8961 64.2073C51.6477 63.9589 51.3592 63.7746 51.0306 63.6544C50.7021 63.5342 50.3535 63.4821 49.9848 63.4981C49.6242 63.5061 49.2596 63.5903 48.8909 63.7506C48.5303 63.9188 48.1857 64.1673 47.8572 64.4958L44.4192 67.9338L43.3614 66.876L49.8045 60.4328L50.67 61.2983L49.6122 62.5966L49.6603 62.6446C50.0369 62.5405 50.4176 62.4884 50.8023 62.4884C51.1949 62.4804 51.5716 62.5445 51.9322 62.6807C52.3008 62.8089 52.6334 63.0213 52.9299 63.3178ZM51.9563 60.9016C52.0364 60.6131 52.0925 60.2765 52.1245 59.8919C52.1646 59.4992 52.1927 59.1025 52.2087 58.7018C52.2247 58.3011 52.2367 57.9525 52.2448 57.656L52.401 57.4997L53.1223 58.221C53.1944 58.5656 53.2465 58.9462 53.2785 59.363C53.3106 59.7797 53.3186 60.1964 53.3026 60.6131C53.7353 60.6131 54.1601 60.6292 54.5768 60.6612C54.9935 60.6933 55.3742 60.7454 55.7188 60.8175L56.4641 61.5628L56.3078 61.719C56.0033 61.719 55.6466 61.723 55.2379 61.7311C54.8372 61.7471 54.4365 61.7711 54.0359 61.8032C53.6512 61.8352 53.3186 61.8953 53.0381 61.9835L51.9563 60.9016ZM50.1662 74.0174C49.4449 73.2961 49.1003 72.4466 49.1324 71.469C49.1725 70.4993 49.6813 69.5256 50.659 68.5479C51.6367 67.5702 52.7186 67.0413 53.9047 66.9611C55.0907 66.881 56.1245 67.2817 57.006 68.1632C57.567 68.7242 57.8475 69.3493 57.8475 70.0385C57.8555 70.7197 57.6031 71.3167 57.0902 71.8296C56.5853 72.3345 55.856 72.5348 54.9024 72.4306C53.9567 72.3345 52.9831 71.7855 51.9813 70.7838C51.7169 70.5193 51.4484 70.2268 51.1759 69.9062C50.663 70.5313 50.4026 71.1364 50.3946 71.7214C50.3946 72.3144 50.6029 72.8193 51.0197 73.236C51.7169 73.9332 52.5142 74.2979 53.4118 74.3299L53.2555 75.3517C52.0615 75.3276 51.0317 74.8829 50.1662 74.0174ZM56.1525 68.9446C55.5996 68.3916 54.9425 68.1272 54.1811 68.1512C53.4278 68.1833 52.6946 68.4918 51.9813 69.0768C52.2057 69.3813 52.4782 69.6939 52.7987 70.0144C53.4879 70.7036 54.1451 71.1043 54.7702 71.2165C55.3952 71.3287 55.8761 71.2165 56.2127 70.8799C56.4611 70.6315 56.5853 70.323 56.5853 69.9543C56.6013 69.5857 56.4571 69.2491 56.1525 68.9446ZM62.4439 69.1294L63.3575 70.043L56.2652 77.1353C55.8245 77.576 55.7844 77.9767 56.145 78.3373C56.3774 78.5697 56.686 78.718 57.0706 78.7821L56.7821 79.7919C56.0609 79.6316 55.5039 79.3551 55.1112 78.9624C54.7186 78.5697 54.5182 78.153 54.5102 77.7123C54.5102 77.2795 54.7907 76.7827 55.3517 76.2217L62.4439 69.1294ZM59.1466 82.9978C58.4253 82.2765 58.0807 81.427 58.1128 80.4493C58.1529 79.4797 58.6617 78.506 59.6394 77.5283C60.6171 76.5506 61.699 76.0217 62.8851 75.9415C64.0711 75.8614 65.1049 76.2621 65.9864 77.1436C66.5474 77.7046 66.8279 78.3297 66.8279 79.0189C66.8359 79.7001 66.5835 80.2971 66.0706 80.81C65.5657 81.3148 64.8364 81.5152 63.8828 81.411C62.9371 81.3148 61.9635 80.7659 60.9617 79.7642C60.6973 79.4997 60.4288 79.2072 60.1563 78.8866C59.6434 79.5117 59.383 80.1168 59.375 80.7018C59.375 81.2948 59.5833 81.7997 60.0001 82.2164C60.6973 82.9136 61.4946 83.2782 62.3922 83.3103L62.2359 84.3321C61.0419 84.308 60.0121 83.8633 59.1466 82.9978ZM65.1329 77.925C64.58 77.372 63.9228 77.1076 63.1615 77.1316C62.4082 77.1637 61.675 77.4722 60.9617 78.0572C61.1861 78.3617 61.4586 78.6743 61.7791 78.9948C62.4683 79.684 63.1255 80.0847 63.7505 80.1969C64.3756 80.3091 64.8565 80.1969 65.193 79.8603C65.4415 79.6119 65.5657 79.3034 65.5657 78.9347C65.5817 78.5661 65.4375 78.2295 65.1329 77.925ZM72.2538 83.411C73.568 84.7253 73.3837 86.2238 71.7008 87.9068L68.0465 91.5611L67.1329 90.6475L70.7872 86.9932C71.9252 85.8552 72.0895 84.8815 71.2801 84.0721C70.8153 83.6073 70.1501 83.423 69.2846 83.5192C68.4271 83.6233 67.5657 84.0841 66.7002 84.9016L64.0436 87.5582L63.13 86.6446L67.9383 81.8362L69.0202 80.514L69.8737 81.2472L68.8639 82.7138C69.5451 82.5294 70.1862 82.5054 70.7872 82.6416C71.3883 82.7779 71.8771 83.0343 72.2538 83.411ZM71.813 95.6642C71.0918 94.943 70.7472 94.0935 70.7793 93.1158C70.8193 92.1461 71.3282 91.1724 72.3059 90.1948C73.2836 89.2171 74.3655 88.6881 75.5515 88.608C76.7376 88.5279 77.7714 88.9286 78.6529 89.8101C79.2139 90.3711 79.4943 90.9961 79.4943 91.6853C79.5024 92.3665 79.2499 92.9635 78.737 93.4764C78.2322 93.9813 77.5029 94.1817 76.5492 94.0775C75.6036 93.9813 74.6299 93.4324 73.6282 92.4306C73.3637 92.1662 73.0953 91.8737 72.8228 91.5531C72.3099 92.1782 72.0495 92.7832 72.0414 93.3682C72.0414 93.9613 72.2498 94.4662 72.6665 94.8829C73.3637 95.5801 74.1611 95.9447 75.0587 95.9768L74.9024 96.9985C73.7083 96.9745 72.6785 96.5297 71.813 95.6642ZM77.7994 90.5914C77.2464 90.0385 76.5893 89.774 75.828 89.7981C75.0747 89.8301 74.3414 90.1387 73.6282 90.7237C73.8526 91.0282 74.125 91.3407 74.4456 91.6613C75.1348 92.3505 75.7919 92.7512 76.417 92.8634C77.0421 92.9756 77.5229 92.8634 77.8595 92.5268C78.1079 92.2784 78.2322 91.9698 78.2322 91.6012C78.2482 91.2326 78.1039 90.896 77.7994 90.5914ZM81.8624 87.7064C82.1189 87.9629 82.1069 88.3756 81.8264 88.9446L77.8956 88.5479L77.9076 87.9589L80.8166 87.5021C81.3055 87.43 81.6541 87.4981 81.8624 87.7064ZM30.7442 73.2871C29.9268 74.1045 28.7929 74.2688 27.3423 73.7799L26.2484 78.0473L25.1906 76.9895L26.1643 73.227C25.6995 72.9705 25.1906 72.6139 24.6377 72.1571L22.498 74.2968L21.5844 73.3832L29.9989 64.9687L30.9125 65.8823L27.5587 69.2361C28.7848 68.9716 29.7906 69.2321 30.5759 70.0174C31.1529 70.5944 31.4374 71.1674 31.4294 71.7364C31.4294 72.3134 31.201 72.8303 30.7442 73.2871ZM29.7345 70.8108C29.2056 70.2819 28.5324 70.0655 27.715 70.1617C26.9056 70.2498 26.2364 70.5584 25.7075 71.0873L25.4431 71.3517C26.4047 72.1691 27.2662 72.654 28.0275 72.8062C28.7969 72.9505 29.3779 72.8263 29.7705 72.4336C30.0029 72.2012 30.1232 71.9448 30.1312 71.6643C30.1472 71.3758 30.015 71.0913 29.7345 70.8108ZM29.3355 81.471C28.6464 80.7818 28.3418 79.9564 28.422 78.9947C28.5021 78.033 29.031 77.0634 30.0087 76.0857C30.9944 75.1 32.0683 74.5791 33.2303 74.523C34.4083 74.4669 35.4101 74.8515 36.2355 75.677C37.0689 76.5104 37.5858 77.4921 37.7862 78.6221L33.5068 82.9015L32.4249 84.2238L31.5714 83.4905L32.4489 82.2043C31.2068 82.5489 30.169 82.3044 29.3355 81.471ZM30.9463 76.9752C30.2251 77.6965 29.8244 78.4017 29.7443 79.0909C29.6641 79.7801 29.8605 80.3611 30.3333 80.8339C30.8141 81.3147 31.4552 81.483 32.2566 81.3388C33.066 81.1865 33.9075 80.6736 34.781 79.8001L36.4519 78.1292C36.2515 77.5282 35.923 76.9993 35.4662 76.5425C34.8731 75.9494 34.1519 75.693 33.3024 75.7731C32.461 75.8453 31.6756 76.246 30.9463 76.9752ZM39.174 89.8189C38.1002 89.7388 37.1786 89.314 36.4092 88.5447C35.6479 87.7834 35.2713 86.8938 35.2793 85.8761C35.2953 84.8663 35.7922 83.8726 36.7699 82.8949C37.7556 81.9092 38.8054 81.3562 39.9193 81.236C41.0493 81.1158 42.059 81.5005 42.9486 82.39C43.5015 82.943 43.8701 83.6001 44.0545 84.3614L43.0928 84.8663C42.9005 84.2092 42.5879 83.6642 42.1552 83.2315C41.5622 82.6385 40.8649 82.39 40.0636 82.4862C39.2622 82.5824 38.4848 83.0071 37.7315 83.7604C36.9862 84.5057 36.5855 85.2269 36.5294 85.9241C36.4894 86.6214 36.7218 87.2224 37.2266 87.7273C37.8678 88.3684 38.613 88.729 39.4625 88.8091L39.174 89.8189ZM44.7552 96.554L43.8416 95.6404L47.4959 91.9861C48.6339 90.8481 48.7982 89.8745 47.9887 89.0651C47.5239 88.6002 46.8588 88.4159 45.9933 88.5121C45.1358 88.6163 44.2743 89.0771 43.4088 89.8945L40.7522 92.5511L39.8386 91.6375L48.2532 83.2229L49.1668 84.1365L45.5966 87.7067C46.2698 87.5144 46.8989 87.4863 47.4839 87.6226C48.0849 87.7588 48.5778 88.0192 48.9624 88.4039C50.2767 89.7182 50.0924 91.2168 48.4095 92.8997L44.7552 96.554ZM55.8049 95.2464C57.1192 96.5607 56.9349 98.0593 55.252 99.7422L51.5976 103.396L50.684 102.483L54.3384 98.8286C55.4763 97.6906 55.6406 96.7169 54.8312 95.9075C54.3664 95.4427 53.7013 95.2584 52.8358 95.3546C51.9783 95.4588 51.1168 95.9195 50.2513 96.737L47.5947 99.3936L46.6811 98.48L51.4894 93.6717L52.5713 92.3494L53.4248 93.0826L52.415 94.5492C53.0962 94.3649 53.7373 94.3408 54.3384 94.4771C54.9394 94.6133 55.4283 94.8697 55.8049 95.2464ZM51.9983 109.543L51.4815 108.497L54.5948 107.019L58.5737 98.3518L59.5594 99.3375L56.3499 106.177L63.1657 102.944L64.1274 103.905L51.9983 109.543Z" fill="#FFF500"/>
<path d="M34.7689 55.0139L35.7678 55.0614L35.8247 53.8657L34.638 54.0225L34.7689 55.0139ZM35.0454 56.6126L34.108 56.9608L34.1107 56.9681L35.0454 56.6126ZM37.6058 58.9807L37.7703 57.9943L37.7589 57.9925L37.6058 58.9807ZM39.7215 57.0093L38.7232 57.0698L38.7243 57.0837L39.7215 57.0093ZM39.2527 55.4106L38.3637 55.8685L38.3663 55.8736L39.2527 55.4106ZM38.4473 53.7877L37.5425 54.2135L37.5452 54.2192L38.4473 53.7877ZM38.1227 52.0447L37.1268 51.9542L37.1257 51.967L37.1248 51.9799L38.1227 52.0447ZM41.4285 49.34L41.557 48.3483L41.5491 48.3473L41.4285 49.34ZM45.3953 53.3069L45.6202 54.2813L46.5875 54.0581L46.3713 53.0891L45.3953 53.3069ZM44.1452 53.5954L43.1697 53.8157L43.391 54.7957L44.37 54.5698L44.1452 53.5954ZM39.6975 53.2107L40.6373 52.869L40.6348 52.8622L40.6322 52.8555L39.6975 53.2107ZM40.1903 54.3046L39.3074 54.7743L39.311 54.7809L40.1903 54.3046ZM40.7553 55.4947L39.8306 55.8755L39.8343 55.8843L40.7553 55.4947ZM41.1279 56.7328L40.1431 56.9066L40.1455 56.9192L41.1279 56.7328ZM37.6299 60.3511L37.5058 61.3434L37.508 61.3437L37.6299 60.3511ZM33.4947 55.1822L33.3638 54.1908L32.4667 54.3093L32.4952 55.2137L33.4947 55.1822ZM33.7701 54.9663C33.7385 55.6283 33.8612 56.2963 34.108 56.9608L35.9828 56.2644C35.8129 55.807 35.7512 55.4092 35.7678 55.0614L33.7701 54.9663ZM34.1107 56.9681C34.3803 57.677 34.7976 58.308 35.348 58.8584L36.7623 57.4442C36.3991 57.081 36.1433 56.6862 35.9801 56.2572L34.1107 56.9681ZM35.348 58.8584C35.9409 59.4512 36.645 59.8438 37.4527 59.9689L37.7589 57.9925C37.4288 57.9414 37.0991 57.781 36.7623 57.4442L35.348 58.8584ZM37.4414 59.9671C38.354 60.1192 39.1789 59.8316 39.8276 59.183L38.4134 57.7688C38.1965 57.9856 38.0117 58.0346 37.7702 57.9943L37.4414 59.9671ZM39.8276 59.183C40.4382 58.5724 40.784 57.8094 40.7187 56.9349L38.7243 57.0837C38.7392 57.2831 38.6843 57.4978 38.4134 57.7688L39.8276 59.183ZM40.7197 56.9488C40.678 56.2606 40.4754 55.5914 40.139 54.9475L38.3663 55.8736C38.5909 56.3035 38.7009 56.7002 38.7233 57.0698L40.7197 56.9488ZM40.1417 54.9526C39.8738 54.4327 39.6098 53.9006 39.3494 53.3563L37.5452 54.2192C37.8137 54.7808 38.0866 55.3306 38.3637 55.8685L40.1417 54.9526ZM39.3521 53.3619C39.1697 52.9742 39.0912 52.5625 39.1206 52.1095L37.1248 51.9799C37.0741 52.7611 37.212 53.5114 37.5425 54.2135L39.3521 53.3619ZM39.1186 52.1353C39.1488 51.8037 39.3103 51.4299 39.7314 51.0088L38.3172 49.5946C37.6484 50.2634 37.2089 51.0517 37.1268 51.9542L39.1186 52.1353ZM39.7314 51.0088C40.3124 50.4278 40.823 50.2738 41.3079 50.3327L41.5491 48.3473C40.3189 48.1979 39.2267 48.6851 38.3172 49.5946L39.7314 51.0088ZM41.2999 50.3317C41.9317 50.4136 42.4935 50.6893 43.0053 51.2011L44.4195 49.7869C43.6171 48.9845 42.6562 48.4908 41.557 48.3483L41.2999 50.3317ZM43.0053 51.2011C43.8149 52.0107 44.2547 52.7869 44.4193 53.5247L46.3713 53.0891C46.1032 51.8875 45.4211 50.7885 44.4195 49.7869L43.0053 51.2011ZM45.1705 52.3325L43.9203 52.621L44.37 54.5698L45.6202 54.2813L45.1705 52.3325ZM45.1206 53.3751C44.8985 52.3915 44.3235 51.494 43.5059 50.6765L42.0917 52.0907C42.7327 52.7317 43.0552 53.3087 43.1697 53.8157L45.1206 53.3751ZM43.5059 50.6765C42.9791 50.1496 42.3396 49.8128 41.6069 49.6984L41.2981 51.6744C41.5912 51.7202 41.8492 51.8482 42.0917 52.0907L43.5059 50.6765ZM41.6069 49.6984C40.7258 49.5607 39.949 49.8861 39.339 50.4962L40.7532 51.9104C40.9926 51.6709 41.1534 51.6518 41.2981 51.6744L41.6069 49.6984ZM39.339 50.4962C38.9427 50.8924 38.6684 51.3755 38.571 51.9367C38.4751 52.4889 38.5632 53.041 38.7627 53.566L40.6322 52.8555C40.5272 52.5791 40.5211 52.396 40.5415 52.2789C40.5602 52.1711 40.6125 52.051 40.7532 51.9104L39.339 50.4962ZM38.7577 53.5525C38.9038 53.9545 39.0881 54.3618 39.3074 54.7743L41.0732 53.835C40.8919 53.4941 40.7475 53.1722 40.6373 52.869L38.7577 53.5525ZM39.311 54.7809C39.5024 55.1342 39.6756 55.499 39.8306 55.8754L41.68 55.114C41.4984 54.673 41.2949 54.2444 41.0696 53.8284L39.311 54.7809ZM39.8343 55.8843C39.9839 56.2379 40.0852 56.5784 40.1432 56.9066L42.1127 56.5591C42.0264 56.0699 41.8793 55.5849 41.6763 55.1051L39.8343 55.8843ZM40.1455 56.9192C40.2474 57.4565 40.1036 58.0018 39.4832 58.6222L40.8974 60.0364C41.8798 59.0541 42.3611 57.8684 42.1104 56.5465L40.1455 56.9192ZM39.4832 58.6222C38.8546 59.2509 38.2925 59.425 37.7518 59.3586L37.508 61.3437C38.7944 61.5016 39.9393 60.9946 40.8974 60.0364L39.4832 58.6222ZM37.7539 59.3588C37.1214 59.2798 36.4796 58.9646 35.8246 58.3097L34.4104 59.7239C35.3102 60.6237 36.3433 61.1981 37.5058 61.3434L37.7539 59.3588ZM35.8246 58.3097C34.9788 57.4639 34.5347 56.4309 34.4942 55.1506L32.4952 55.2137C32.551 56.9787 33.1887 58.5021 34.4104 59.7239L35.8246 58.3097ZM33.6257 56.1735L34.8999 56.0053L34.638 54.0225L33.3638 54.1908L33.6257 56.1735ZM43.9377 56.9942L43.2306 56.2871L42.5235 56.9942L43.2306 57.7013L43.9377 56.9942ZM44.7191 56.2128L45.4262 55.5057L44.7191 54.7986L44.012 55.5057L44.7191 56.2128ZM45.6326 57.1264L44.9255 57.8335L45.5285 58.4365L46.2192 57.9364L45.6326 57.1264ZM47.7243 55.6118L48.4314 54.9047L47.8284 54.3017L47.1378 54.8019L47.7243 55.6118ZM48.3493 56.2369L49.0565 56.944L49.7636 56.2369L49.0565 55.5298L48.3493 56.2369ZM46.5462 58.04L45.8391 57.3329L45.132 58.04L45.8391 58.7471L46.5462 58.04ZM47.9527 59.4464L48.6598 60.1536L49.3669 59.4464L48.6598 58.7393L47.9527 59.4464ZM47.1713 60.2278L46.4642 60.9349L47.1713 61.642L47.8784 60.9349L47.1713 60.2278ZM45.7649 58.8214L46.472 58.1143L45.7649 57.4072L45.0578 58.1143L45.7649 58.8214ZM42.964 64.4832L43.9242 64.7627L44.2411 63.6741L43.1215 63.4956L42.964 64.4832ZM42.6875 65.4328L42.5729 66.4262L43.4117 66.523L43.6477 65.7123L42.6875 65.4328ZM40.091 63.3171L39.091 63.3172V63.3357L39.0917 63.3542L40.091 63.3171ZM44.8513 57.9078L45.5584 58.6149L46.2655 57.9078L45.5584 57.2007L44.8513 57.9078ZM44.6448 57.7013L45.4262 56.92L44.012 55.5057L43.2306 56.2871L44.6448 57.7013ZM44.012 56.92L44.9255 57.8335L46.3398 56.4193L45.4262 55.5057L44.012 56.92ZM46.2192 57.9364L48.3108 56.4217L47.1378 54.8019L45.0461 56.3165L46.2192 57.9364ZM47.0172 56.3189L47.6422 56.944L49.0565 55.5298L48.4314 54.9047L47.0172 56.3189ZM47.6422 55.5298L45.8391 57.3329L47.2533 58.7471L49.0565 56.944L47.6422 55.5298ZM45.8391 58.7471L47.2456 60.1536L48.6598 58.7393L47.2533 57.3329L45.8391 58.7471ZM47.2456 58.7393L46.4642 59.5207L47.8784 60.9349L48.6598 60.1536L47.2456 58.7393ZM47.8784 59.5207L46.472 58.1143L45.0578 59.5285L46.4642 60.9349L47.8784 59.5207ZM45.0578 58.1143L41.139 62.033L42.5532 63.4473L46.472 59.5285L45.0578 58.1143ZM41.139 62.033C40.8402 62.3318 40.5431 62.7455 40.4904 63.2717C40.4329 63.8474 40.6878 64.3184 41.0188 64.6493L42.433 63.2351C42.4135 63.2156 42.4318 63.2277 42.4522 63.2762C42.4752 63.3308 42.4875 63.4004 42.4805 63.4707C42.474 63.5356 42.4545 63.567 42.4589 63.5593C42.4644 63.5497 42.4889 63.5116 42.5532 63.4473L41.139 62.033ZM41.0188 64.6493C41.4941 65.1247 42.1359 65.3638 42.8066 65.4707L43.1215 63.4956C42.6863 63.4263 42.5026 63.3047 42.433 63.2351L41.0188 64.6493ZM42.0039 64.2036L41.7274 65.1533L43.6477 65.7123L43.9242 64.7627L42.0039 64.2036ZM42.8022 64.4394C42.1156 64.3602 41.7171 64.1541 41.4833 63.9203L40.0691 65.3345C40.7169 65.9823 41.5926 66.3131 42.5729 66.4262L42.8022 64.4394ZM41.4833 63.9203C41.1432 63.5801 41.0936 63.3687 41.0904 63.2801L39.0917 63.3542C39.1205 64.1311 39.5278 64.7932 40.0691 65.3345L41.4833 63.9203ZM41.091 63.3172C41.091 63.2986 41.1247 63.0486 41.6396 62.5337L40.2254 61.1195C39.6184 61.7265 39.091 62.4702 39.091 63.3172L41.091 63.3172ZM41.6396 62.5337L45.5584 58.6149L44.1442 57.2007L40.2254 61.1195L41.6396 62.5337ZM45.5584 57.2007L44.6448 56.2871L43.2306 57.7013L44.1442 58.6149L45.5584 57.2007ZM53.2906 63.7265L52.5057 64.3462L52.5248 64.3703L52.5453 64.3933L53.2906 63.7265ZM53.6151 64.1472L54.2206 64.9431L54.9466 64.3907L54.4631 63.6172L53.6151 64.1472ZM52.5092 64.9887L51.6612 65.5187L52.2423 66.4484L53.1147 65.7845L52.5092 64.9887ZM52.2207 64.58L51.4263 65.1875L51.4314 65.1939L52.2207 64.58ZM51.0306 63.6544L50.6871 64.5935L50.6871 64.5935L51.0306 63.6544ZM49.9848 63.4981L50.0071 64.4979L50.0177 64.4976L50.0283 64.4972L49.9848 63.4981ZM48.8909 63.7506L48.4922 62.8335L48.4801 62.8388L48.4681 62.8444L48.8909 63.7506ZM44.4192 67.9338L43.7121 68.6409L44.4192 69.348L45.1263 68.6409L44.4192 67.9338ZM43.3614 66.876L42.6543 66.1689L41.9472 66.876L42.6543 67.5831L43.3614 66.876ZM49.8045 60.4328L50.5116 59.7257L49.8045 59.0186L49.0974 59.7257L49.8045 60.4328ZM50.67 61.2983L51.4453 61.93L52.0158 61.2298L51.3771 60.5912L50.67 61.2983ZM49.6122 62.5966L48.837 61.9649L48.2665 62.665L48.9051 63.3037L49.6122 62.5966ZM49.6603 62.6446L48.9532 63.3517L49.3652 63.7638L49.9269 63.6085L49.6603 62.6446ZM50.8023 62.4884V63.4884L50.8125 63.4884L50.8227 63.4882L50.8023 62.4884ZM51.9322 62.6807L51.5788 63.6162L51.5912 63.6209L51.6037 63.6252L51.9322 62.6807ZM51.9563 60.9016L50.9927 60.634L50.8366 61.1962L51.2491 61.6087L51.9563 60.9016ZM52.1245 59.8919L51.1297 59.7904L51.1288 59.7996L51.128 59.8088L52.1245 59.8919ZM52.2087 58.7018L51.2095 58.6618L51.2095 58.6618L52.2087 58.7018ZM52.2448 57.656L51.5376 56.9489L51.2559 57.2307L51.2451 57.629L52.2448 57.656ZM52.401 57.4997L53.1081 56.7926L52.401 56.0855L51.6939 56.7926L52.401 57.4997ZM53.1223 58.221L54.1011 58.0161L54.04 57.7245L53.8294 57.5139L53.1223 58.221ZM53.2785 59.363L52.2815 59.4397L52.2815 59.4397L53.2785 59.363ZM53.3026 60.6131L52.3033 60.5747L52.2634 61.6131L53.3026 61.6131L53.3026 60.6131ZM55.7188 60.8175L56.4259 60.1104L56.2152 59.8997L55.9236 59.8387L55.7188 60.8175ZM56.4641 61.5628L57.1712 62.2699L57.8783 61.5628L57.1712 60.8557L56.4641 61.5628ZM56.3078 61.719L56.3078 62.719L56.722 62.719L57.0149 62.4261L56.3078 61.719ZM55.2379 61.7311L55.2183 60.7313L55.2081 60.7315L55.198 60.7319L55.2379 61.7311ZM54.0359 61.8032L53.9561 60.8064L53.9528 60.8066L54.0359 61.8032ZM53.0381 61.9835L52.331 62.6906L52.7597 63.1192L53.338 62.9375L53.0381 61.9835ZM52.2228 64.0249C52.3119 64.114 52.4064 64.2204 52.5057 64.3462L54.0754 63.1069C53.9343 62.9281 53.7884 62.762 53.637 62.6107L52.2228 64.0249ZM52.5453 64.3933C52.6558 64.5167 52.7257 64.6109 52.7671 64.6772L54.4631 63.6172C54.3443 63.4271 54.1978 63.2408 54.0358 63.0597L52.5453 64.3933ZM53.0096 63.3514L51.9037 64.1929L53.1147 65.7845L54.2206 64.9431L53.0096 63.3514ZM53.3572 64.4587C53.2557 64.2963 53.1391 64.1319 53.0101 63.9661L51.4314 65.1939C51.5267 65.3166 51.6024 65.4247 51.6612 65.5187L53.3572 64.4587ZM53.0151 63.9725C52.8862 63.804 52.7491 63.6461 52.6033 63.5002L51.189 64.9145C51.2676 64.993 51.3469 65.0835 51.4264 65.1874L53.0151 63.9725ZM52.6033 63.5002C52.2524 63.1494 51.84 62.8857 51.3742 62.7153L50.6871 64.5935C50.8784 64.6635 51.043 64.7684 51.189 64.9145L52.6033 63.5002ZM51.3742 62.7153C50.9152 62.5473 50.4344 62.4776 49.9414 62.4991L50.0283 64.4972C50.2725 64.4866 50.489 64.521 50.6871 64.5935L51.3742 62.7153ZM49.9626 62.4984C49.4583 62.5096 48.9662 62.6274 48.4922 62.8335L49.2897 64.6676C49.553 64.5532 49.7902 64.5027 50.0071 64.4979L49.9626 62.4984ZM48.4681 62.8444C47.9857 63.0695 47.5475 63.3913 47.15 63.7887L48.5643 65.203C48.824 64.9433 49.0749 64.7682 49.3138 64.6567L48.4681 62.8444ZM47.15 63.7887L43.7121 67.2267L45.1263 68.6409L48.5643 65.203L47.15 63.7887ZM45.1263 67.2267L44.0685 66.1689L42.6543 67.5831L43.7121 68.6409L45.1263 67.2267ZM44.0685 67.5831L50.5116 61.1399L49.0974 59.7257L42.6543 66.1689L44.0685 67.5831ZM49.0974 61.1399L49.9629 62.0054L51.3771 60.5912L50.5116 59.7257L49.0974 61.1399ZM49.8948 60.6666L48.837 61.9649L50.3874 63.2282L51.4453 61.93L49.8948 60.6666ZM48.9051 63.3037L48.9532 63.3517L50.3674 61.9375L50.3193 61.8895L48.9051 63.3037ZM49.9269 63.6085C50.2181 63.5279 50.5091 63.4884 50.8023 63.4884L50.8023 61.4884C50.3261 61.4884 49.8558 61.553 49.3937 61.6808L49.9269 63.6085ZM50.8227 63.4882C51.0902 63.4827 51.3398 63.5259 51.5788 63.6162L52.2856 61.7452C51.8033 61.563 51.2996 61.478 50.7818 61.4886L50.8227 63.4882ZM51.6037 63.6252C51.8194 63.7002 52.0249 63.827 52.2228 64.0249L53.637 62.6107C53.242 62.2156 52.7823 61.9176 52.2607 61.7362L51.6037 63.6252ZM52.9198 61.1693C53.0207 60.806 53.0852 60.4051 53.1211 59.9749L51.128 59.8088C51.0997 60.1479 51.0521 60.4202 50.9927 60.634L52.9198 61.1693ZM53.1194 59.9934C53.1616 59.5799 53.1911 59.1627 53.2079 58.7418L51.2095 58.6618C51.1943 59.0423 51.1677 59.4185 51.1297 59.7904L53.1194 59.9934ZM53.2079 58.7418C53.224 58.3382 53.2362 57.985 53.2444 57.683L51.2451 57.629C51.2373 57.92 51.2254 58.2641 51.2095 58.6618L53.2079 58.7418ZM52.9519 58.3631L53.1081 58.2068L51.6939 56.7926L51.5376 56.9489L52.9519 58.3631ZM51.6939 58.2068L52.4152 58.9281L53.8294 57.5139L53.1081 56.7926L51.6939 58.2068ZM52.1435 58.4258C52.2053 58.7212 52.2522 59.0583 52.2815 59.4397L54.2756 59.2863C54.2408 58.8342 54.1835 58.4099 54.1011 58.0161L52.1435 58.4258ZM52.2815 59.4397C52.3106 59.8182 52.3179 60.1964 52.3033 60.5747L54.3018 60.6516C54.3194 60.1964 54.3106 59.7412 54.2756 59.2863L52.2815 59.4397ZM53.3026 61.6131C53.7106 61.6131 54.1098 61.6282 54.5001 61.6583L54.6535 59.6642C54.2104 59.6301 53.76 59.6131 53.3026 59.6131L53.3026 61.6131ZM54.5001 61.6583C54.8815 61.6876 55.2185 61.7344 55.5139 61.7963L55.9236 59.8387C55.5298 59.7563 55.1056 59.6989 54.6535 59.6642L54.5001 61.6583ZM55.0117 61.5246L55.7569 62.2699L57.1712 60.8557L56.4259 60.1104L55.0117 61.5246ZM55.7569 60.8557L55.6007 61.0119L57.0149 62.4261L57.1712 62.2699L55.7569 60.8557ZM56.3078 60.719C55.995 60.719 55.6315 60.7232 55.2183 60.7313L55.2575 62.7309C55.6618 62.7229 56.0116 62.719 56.3078 62.719L56.3078 60.719ZM55.198 60.7319C54.784 60.7484 54.37 60.7733 53.9561 60.8064L54.1156 62.8C54.5031 62.769 54.8905 62.7458 55.2779 62.7303L55.198 60.7319ZM53.9528 60.8066C53.516 60.843 53.1072 60.9136 52.7383 61.0295L53.338 62.9375C53.53 62.8771 53.7864 62.8274 54.1189 62.7997L53.9528 60.8066ZM53.7452 61.2764L52.6634 60.1945L51.2491 61.6087L52.331 62.6906L53.7452 61.2764ZM49.1324 71.469L48.1332 71.4277L48.1329 71.4362L49.1324 71.469ZM53.9047 66.9611L53.8372 65.9634L53.8372 65.9634L53.9047 66.9611ZM57.8475 70.0385L56.8474 70.0385L56.8476 70.0502L57.8475 70.0385ZM54.9024 72.4306L55.011 71.4365L55.0036 71.4358L54.9024 72.4306ZM51.1759 69.9062L51.9379 69.2586L51.1624 68.3463L50.4029 69.2719L51.1759 69.9062ZM50.3946 71.7214L49.3946 71.7077L49.3946 71.7214L50.3946 71.7214ZM53.4118 74.3299L54.4003 74.4811L54.5701 73.3706L53.4475 73.3305L53.4118 74.3299ZM53.2555 75.3517L53.2354 76.3515L54.1116 76.3691L54.244 75.5029L53.2555 75.3517ZM54.1811 68.1512L54.1496 67.1516L54.1386 67.1521L54.1811 68.1512ZM51.9813 69.0768L51.3471 68.3036L50.6131 68.9057L51.1763 69.67L51.9813 69.0768ZM54.7702 71.2165L54.5935 72.2008L54.7702 71.2165ZM56.5853 69.9543L55.5862 69.9109L55.5853 69.9326L55.5853 69.9543H56.5853ZM50.8733 73.3103C50.3382 72.7752 50.1093 72.1899 50.1319 71.5017L48.1329 71.4362C48.0914 72.7033 48.5517 73.8171 49.4591 74.7245L50.8733 73.3103ZM50.1315 71.5102C50.1576 70.8803 50.4908 70.1303 51.3661 69.255L49.9519 67.8408C48.8718 68.9209 48.1874 70.1183 48.1332 71.4277L50.1315 71.5102ZM51.3661 69.255C52.2023 68.4188 53.0661 68.0201 53.9721 67.9589L53.8372 65.9634C52.3712 66.0625 51.0711 66.7216 49.9519 67.8408L51.3661 69.255ZM53.9721 67.9589C54.8545 67.8992 55.6102 68.1816 56.2989 68.8703L57.7131 67.4561C56.6388 66.3818 55.3269 65.8628 53.8372 65.9634L53.9721 67.9589ZM56.2989 68.8703C56.7031 69.2745 56.8475 69.655 56.8475 70.0385L58.8475 70.0385C58.8475 69.0436 58.4309 68.1739 57.7131 67.4561L56.2989 68.8703ZM56.8476 70.0502C56.8522 70.4433 56.7193 70.7863 56.3831 71.1225L57.7973 72.5367C58.4869 71.8471 58.8588 70.996 58.8474 70.0267L56.8476 70.0502ZM56.3831 71.1225C56.1605 71.345 55.7739 71.5199 55.011 71.4365L54.7938 73.4247C55.9382 73.5497 57.0101 73.3239 57.7973 72.5367L56.3831 71.1225ZM55.0036 71.4358C54.3758 71.3719 53.6042 70.9924 52.6884 70.0767L51.2742 71.4909C52.3619 72.5786 53.5377 73.297 54.8012 73.4255L55.0036 71.4358ZM52.6884 70.0767C52.4452 69.8335 52.195 69.5611 51.9379 69.2586L50.414 70.5539C50.7018 70.8925 50.9885 71.2052 51.2742 71.4909L52.6884 70.0767ZM50.4029 69.2719C49.8005 70.0061 49.4068 70.8233 49.3947 71.7077L51.3945 71.7351C51.3984 71.4495 51.5256 71.0566 51.949 70.5406L50.4029 69.2719ZM49.3946 71.7214C49.3946 72.5778 49.707 73.3375 50.3126 73.9431L51.7268 72.5289C51.4989 72.301 51.3946 72.0511 51.3946 71.7214L49.3946 71.7214ZM50.3126 73.9431C51.1695 74.8001 52.2002 75.2873 53.3761 75.3293L53.4475 73.3305C52.8283 73.3084 52.2642 73.0663 51.7268 72.5289L50.3126 73.9431ZM52.4233 74.1787L52.267 75.2005L54.244 75.5029L54.4003 74.4811L52.4233 74.1787ZM53.2757 74.3519C52.3468 74.3332 51.5612 73.9982 50.8733 73.3103L49.4591 74.7245C50.5021 75.7675 51.7761 76.3221 53.2354 76.3515L53.2757 74.3519ZM56.8597 68.2375C56.1173 67.4951 55.1951 67.1187 54.1496 67.1517L54.2127 69.1507C54.6898 69.1356 55.0819 69.2881 55.4454 69.6517L56.8597 68.2375ZM54.1386 67.1521C53.1241 67.1953 52.1896 67.6126 51.3471 68.3036L52.6155 69.85C53.1995 69.371 53.7316 69.1712 54.2236 69.1503L54.1386 67.1521ZM51.1763 69.67C51.4356 70.0219 51.7423 70.3722 52.0916 70.7215L53.5058 69.3073C53.214 69.0155 52.9759 68.7408 52.7864 68.4836L51.1763 69.67ZM52.0916 70.7215C52.8531 71.483 53.6862 72.0379 54.5935 72.2008L54.9468 70.2322C54.6039 70.1707 54.1228 69.9243 53.5058 69.3073L52.0916 70.7215ZM54.5935 72.2008C55.4224 72.3496 56.278 72.2288 56.9198 71.587L55.5055 70.1728C55.4741 70.2043 55.3681 70.3079 54.9468 70.2322L54.5935 72.2008ZM56.9198 71.587C57.3658 71.141 57.5853 70.5736 57.5853 69.9543L55.5853 69.9543C55.5853 70.0723 55.5564 70.122 55.5055 70.1728L56.9198 71.587ZM57.5844 69.9978C57.6146 69.3016 57.3261 68.7039 56.8597 68.2375L55.4454 69.6517C55.588 69.7943 55.588 69.8697 55.5862 69.9109L57.5844 69.9978ZM62.4439 69.1294L63.1511 68.4223L62.4439 67.7152L61.7368 68.4223L62.4439 69.1294ZM63.3575 70.043L64.0646 70.7501L64.7717 70.043L64.0646 69.3359L63.3575 70.043ZM57.0706 78.7821L58.0322 79.0568L58.3399 77.9799L57.235 77.7957L57.0706 78.7821ZM56.7821 79.7919L56.5652 80.7681L57.4849 80.9724L57.7437 80.0666L56.7821 79.7919ZM54.5102 77.7123L53.5102 77.7123V77.7214L53.5104 77.7304L54.5102 77.7123ZM61.7368 69.8365L62.6504 70.7501L64.0646 69.3359L63.1511 68.4223L61.7368 69.8365ZM62.6504 69.3359L55.5581 76.4282L56.9724 77.8424L64.0646 70.7501L62.6504 69.3359ZM55.5581 76.4282C55.2594 76.7269 54.9622 77.1406 54.9096 77.6669C54.852 78.2425 55.107 78.7135 55.4379 79.0445L56.8521 77.6302C56.8327 77.6108 56.8509 77.6228 56.8713 77.6713C56.8943 77.7259 56.9067 77.7956 56.8997 77.8659C56.8932 77.9307 56.8737 77.9621 56.878 77.9545C56.8836 77.9448 56.9081 77.9067 56.9724 77.8424L55.5581 76.4282ZM55.4379 79.0445C55.8436 79.4501 56.3553 79.6767 56.9062 79.7685L57.235 77.7957C57.0166 77.7593 56.9113 77.6894 56.8521 77.6302L55.4379 79.0445ZM56.1091 78.5074L55.8206 79.5171L57.7437 80.0666L58.0322 79.0568L56.1091 78.5074ZM56.9991 78.8157C56.4036 78.6833 56.0389 78.4759 55.8184 78.2553L54.4041 79.6695C54.9689 80.2343 55.7182 80.5798 56.5652 80.7681L56.9991 78.8157ZM55.8184 78.2553C55.5589 77.9959 55.5122 77.8132 55.51 77.6941L53.5104 77.7304C53.5242 78.4929 53.8782 79.1436 54.4041 79.6695L55.8184 78.2553ZM55.5102 77.7123C55.5102 77.6937 55.5439 77.4437 56.0588 76.9288L54.6446 75.5146C54.0375 76.1216 53.5102 76.8654 53.5102 77.7123L55.5102 77.7123ZM56.0588 76.9288L63.1511 69.8365L61.7368 68.4223L54.6446 75.5146L56.0588 76.9288ZM58.1128 80.4493L57.1136 80.4081L57.1133 80.4166L58.1128 80.4493ZM62.8851 75.9415L62.8176 74.9438L62.8176 74.9438L62.8851 75.9415ZM66.8279 79.0189L65.8278 79.0189L65.8279 79.0306L66.8279 79.0189ZM63.8828 81.411L63.9914 80.4169L63.984 80.4161L63.8828 81.411ZM60.1563 78.8866L60.9183 78.239L60.1428 77.3267L59.3833 78.2523L60.1563 78.8866ZM59.375 80.7018L58.375 80.6881L58.375 80.7018L59.375 80.7018ZM62.3922 83.3103L63.3807 83.4615L63.5505 82.351L62.4279 82.3109L62.3922 83.3103ZM62.2359 84.3321L62.2158 85.3319L63.0919 85.3495L63.2244 84.4833L62.2359 84.3321ZM63.1615 77.1316L63.13 76.132L63.119 76.1325L63.1615 77.1316ZM60.9617 78.0572L60.3275 77.284L59.5935 77.8861L60.1567 78.6504L60.9617 78.0572ZM63.7506 80.1969L63.5739 81.1812L63.7506 80.1969ZM65.5657 78.9347L64.5666 78.8913L64.5657 78.913L64.5657 78.9347H65.5657ZM59.8537 82.2907C59.3186 81.7556 59.0897 81.1703 59.1123 80.4821L57.1133 80.4166C57.0718 81.6837 57.5321 82.7974 58.4395 83.7049L59.8537 82.2907ZM59.1119 80.4906C59.138 79.8607 59.4712 79.1107 60.3465 78.2354L58.9323 76.8212C57.8522 77.9013 57.1677 79.0987 57.1136 80.4081L59.1119 80.4906ZM60.3465 78.2354C61.1827 77.3992 62.0464 77.0005 62.9525 76.9393L62.8176 74.9438C61.3515 75.0429 60.0515 75.702 58.9323 76.8212L60.3465 78.2354ZM62.9525 76.9393C63.8349 76.8796 64.5906 77.162 65.2793 77.8507L66.6935 76.4365C65.6192 75.3622 64.3073 74.8432 62.8176 74.9438L62.9525 76.9393ZM65.2793 77.8507C65.6835 78.2549 65.8279 78.6354 65.8279 79.0189L67.8279 79.0189C67.8279 78.024 67.4113 77.1543 66.6935 76.4365L65.2793 77.8507ZM65.8279 79.0306C65.8326 79.4237 65.6996 79.7667 65.3635 80.1029L66.7777 81.5171C67.4673 80.8275 67.8392 79.9764 67.8278 79.0071L65.8279 79.0306ZM65.3635 80.1029C65.1409 80.3254 64.7543 80.5003 63.9914 80.4169L63.7742 82.4051C64.9186 82.5301 65.9905 82.3043 66.7777 81.5171L65.3635 80.1029ZM63.984 80.4161C63.3562 80.3523 62.5846 79.9728 61.6688 79.0571L60.2546 80.4713C61.3423 81.559 62.5181 82.2774 63.7816 82.4059L63.984 80.4161ZM61.6688 79.0571C61.4256 78.8138 61.1754 78.5415 60.9183 78.239L59.3944 79.5343C59.6822 79.8729 59.9689 80.1856 60.2546 80.4713L61.6688 79.0571ZM59.3833 78.2523C58.7809 78.9865 58.3872 79.8036 58.3751 80.6881L60.3749 80.7155C60.3788 80.4299 60.506 80.037 60.9294 79.521L59.3833 78.2523ZM58.375 80.7018C58.375 81.5582 58.6874 82.3179 59.2929 82.9235L60.7072 81.5093C60.4793 81.2814 60.375 81.0315 60.375 80.7018L58.375 80.7018ZM59.2929 82.9235C60.1499 83.7805 61.1806 84.2677 62.3565 84.3097L62.4279 82.3109C61.8087 82.2888 61.2446 82.0467 60.7072 81.5093L59.2929 82.9235ZM61.4037 83.1591L61.2474 84.1809L63.2244 84.4833L63.3807 83.4615L61.4037 83.1591ZM62.2561 83.3323C61.3272 83.3136 60.5416 82.9786 59.8537 82.2907L58.4395 83.7049C59.4825 84.7479 60.7565 85.3025 62.2158 85.3319L62.2561 83.3323ZM65.84 77.2179C65.0977 76.4755 64.1755 76.0991 63.13 76.1321L63.1931 78.1311C63.6702 78.116 64.0623 78.2685 64.4258 78.6321L65.84 77.2179ZM63.119 76.1325C62.1045 76.1757 61.17 76.593 60.3275 77.284L61.5959 78.8304C62.1799 78.3514 62.712 78.1516 63.204 78.1307L63.119 76.1325ZM60.1567 78.6504C60.4159 79.0023 60.7227 79.3526 61.072 79.7019L62.4862 78.2877C62.1944 77.9959 61.9563 77.7212 61.7668 77.464L60.1567 78.6504ZM61.072 79.7019C61.8335 80.4634 62.6666 81.0183 63.5739 81.1812L63.9272 79.2126C63.5843 79.1511 63.1032 78.9046 62.4862 78.2877L61.072 79.7019ZM63.5739 81.1812C64.4028 81.33 65.2584 81.2092 65.9002 80.5674L64.4859 79.1532C64.4545 79.1847 64.3485 79.2882 63.9272 79.2126L63.5739 81.1812ZM65.9002 80.5674C66.3462 80.1214 66.5657 79.554 66.5657 78.9347L64.5657 78.9347C64.5657 79.0527 64.5368 79.1024 64.4859 79.1532L65.9002 80.5674ZM66.5647 78.9782C66.595 78.282 66.3065 77.6843 65.84 77.2179L64.4258 78.6321C64.5684 78.7747 64.5684 78.8501 64.5666 78.8913L66.5647 78.9782ZM68.0465 91.5611L67.3394 92.2682L68.0465 92.9753L68.7536 92.2682L68.0465 91.5611ZM67.1329 90.6475L66.4258 89.9404L65.7187 90.6475L66.4258 91.3546L67.1329 90.6475ZM69.2846 83.5192L69.1742 82.5252L69.164 82.5265L69.2846 83.5192ZM66.7002 84.9016L66.0135 84.1745L66.0031 84.1844L65.993 84.1944L66.7002 84.9016ZM64.0436 87.5582L63.3364 88.2653L64.0436 88.9724L64.7507 88.2653L64.0436 87.5582ZM63.13 86.6446L62.4229 85.9375L61.7158 86.6446L62.4229 87.3517L63.13 86.6446ZM67.9383 81.8362L68.6454 82.5434L68.6807 82.5081L68.7123 82.4695L67.9383 81.8362ZM69.0202 80.514L69.6718 79.7555L68.8949 79.0879L68.2462 79.8807L69.0202 80.514ZM69.8737 81.2472L70.6973 81.8143L71.2069 81.0743L70.5253 80.4887L69.8737 81.2472ZM68.8639 82.7138L68.0403 82.1467L66.4952 84.3907L69.1251 83.6791L68.8639 82.7138ZM70.7872 82.6416L70.5662 83.6169L70.7872 82.6416ZM71.5467 84.1181C72.0417 84.6132 72.1546 85.0253 72.1087 85.3986C72.0555 85.831 71.7625 86.4308 70.9937 87.1997L72.4079 88.6139C73.322 87.6998 73.9626 86.7088 74.0938 85.6427C74.2322 84.5174 73.7801 83.5231 72.9609 82.7039L71.5467 84.1181ZM70.9937 87.1997L67.3394 90.854L68.7536 92.2682L72.4079 88.6139L70.9937 87.1997ZM68.7536 90.854L67.84 89.9404L66.4258 91.3546L67.3394 92.2682L68.7536 90.854ZM67.84 91.3546L71.4943 87.7003L70.0801 86.2861L66.4258 89.9404L67.84 91.3546ZM71.4943 87.7003C72.1257 87.0689 72.6176 86.3602 72.75 85.5758C72.8951 84.7157 72.5789 83.9568 71.9872 83.365L70.573 84.7792C70.7906 84.9969 70.797 85.1295 70.7779 85.2431C70.7459 85.4324 70.5867 85.7795 70.0801 86.2861L71.4943 87.7003ZM71.9872 83.365C71.2424 82.6202 70.2362 82.4073 69.1742 82.5253L69.3951 84.513C70.064 84.4387 70.3882 84.5944 70.573 84.7792L71.9872 83.365ZM69.164 82.5265C68.0273 82.6646 66.9769 83.2647 66.0135 84.1745L67.3868 85.6286C68.1544 84.9036 68.827 84.5821 69.4052 84.5119L69.164 82.5265ZM65.993 84.1944L63.3364 86.851L64.7507 88.2653L67.4073 85.6087L65.993 84.1944ZM64.7507 86.851L63.8371 85.9375L62.4229 87.3517L63.3364 88.2653L64.7507 86.851ZM63.8371 87.3517L68.6454 82.5434L67.2312 81.1291L62.4229 85.9375L63.8371 87.3517ZM68.7123 82.4695L69.7941 81.1472L68.2462 79.8807L67.1643 81.203L68.7123 82.4695ZM68.3685 81.2725L69.222 82.0057L70.5253 80.4887L69.6718 79.7555L68.3685 81.2725ZM69.05 80.6801L68.0403 82.1467L69.6876 83.2809L70.6973 81.8143L69.05 80.6801ZM69.1251 83.6791C69.6718 83.5311 70.146 83.5217 70.5662 83.6169L71.0083 81.6664C70.2263 81.4891 69.4184 81.5278 68.6027 81.7485L69.1251 83.6791ZM70.5662 83.6169C71.0126 83.7181 71.3234 83.8948 71.5467 84.1181L72.9609 82.7039C72.4309 82.1739 71.7639 81.8377 71.0083 81.6664L70.5662 83.6169ZM70.7793 93.1158L69.7801 93.0745L69.7798 93.083L70.7793 93.1158ZM75.5515 88.608L75.4841 87.6103L75.4841 87.6103L75.5515 88.608ZM79.4943 91.6853L78.4943 91.6853L78.4944 91.6971L79.4943 91.6853ZM76.5492 94.0775L76.6578 93.0834L76.6504 93.0826L76.5492 94.0775ZM72.8228 91.5531L73.5847 90.9055L72.8092 89.9931L72.0497 90.9188L72.8228 91.5531ZM72.0414 93.3682L71.0414 93.3546L71.0414 93.3682L72.0414 93.3682ZM75.0587 95.9768L76.0472 96.1279L76.217 95.0175L75.0944 94.9774L75.0587 95.9768ZM74.9024 96.9985L74.8823 97.9983L75.7584 98.016L75.8909 97.1497L74.9024 96.9985ZM75.828 89.7981L75.7964 88.7985L75.7855 88.799L75.828 89.7981ZM73.6282 90.7237L72.994 89.9505L72.26 90.5526L72.8231 91.3169L73.6282 90.7237ZM76.417 92.8634L76.2403 93.8476L76.417 92.8634ZM78.2322 91.6012L77.2331 91.5578L77.2322 91.5795L77.2322 91.6012L78.2322 91.6012ZM81.8264 88.9446L81.726 89.9395L82.4165 90.0092L82.7233 89.3867L81.8264 88.9446ZM77.8956 88.5479L76.8958 88.5275L76.877 89.4502L77.7952 89.5428L77.8956 88.5479ZM77.9076 87.9589L77.7525 86.971L76.9249 87.1009L76.9078 87.9385L77.9076 87.9589ZM80.8166 87.5021L80.6707 86.5128L80.6615 86.5142L80.8166 87.5021ZM72.5201 94.9571C71.9851 94.422 71.7562 93.8368 71.7787 93.1486L69.7798 93.083C69.7382 94.3502 70.1985 95.4639 71.1059 96.3713L72.5201 94.9571ZM71.7784 93.1571C71.8044 92.5271 72.1377 91.7772 73.013 90.9019L71.5988 89.4876C70.5187 90.5677 69.8342 91.7651 69.7801 93.0745L71.7784 93.1571ZM73.013 90.9019C73.8492 90.0657 74.7129 89.6669 75.6189 89.6057L75.4841 87.6103C74.018 87.7093 72.718 88.3684 71.5988 89.4876L73.013 90.9019ZM75.6189 89.6057C76.5014 89.5461 77.2571 89.8285 77.9458 90.5172L79.36 89.103C78.2857 88.0286 76.9738 87.5096 75.4841 87.6103L75.6189 89.6057ZM77.9458 90.5172C78.3499 90.9214 78.4943 91.3019 78.4943 91.6853L80.4943 91.6853C80.4943 90.6904 80.0778 89.8208 79.36 89.103L77.9458 90.5172ZM78.4944 91.6971C78.499 92.0902 78.3661 92.4331 78.0299 92.7693L79.4441 94.1835C80.1337 93.494 80.5057 92.6428 80.4943 91.6736L78.4944 91.6971ZM78.0299 92.7693C77.8074 92.9919 77.4208 93.1667 76.6578 93.0834L76.4406 95.0716C77.585 95.1966 78.657 94.9707 79.4441 94.1835L78.0299 92.7693ZM76.6504 93.0826C76.0227 93.0188 75.2511 92.6393 74.3353 91.7235L72.9211 93.1377C74.0088 94.2254 75.1846 94.9439 76.4481 95.0723L76.6504 93.0826ZM74.3353 91.7235C74.0921 91.4803 73.8418 91.2079 73.5847 90.9055L72.0609 92.2008C72.3487 92.5394 72.6354 92.852 72.9211 93.1377L74.3353 91.7235ZM72.0497 90.9188C71.4473 91.653 71.0536 92.4701 71.0415 93.3545L73.0413 93.3819C73.0453 93.0964 73.1725 92.7034 73.5959 92.1874L72.0497 90.9188ZM71.0414 93.3682C71.0414 94.2246 71.3538 94.9844 71.9594 95.59L73.3736 94.1758C73.1458 93.9479 73.0414 93.6979 73.0414 93.3682L71.0414 93.3682ZM71.9594 95.59C72.8164 96.447 73.8471 96.9341 75.023 96.9761L75.0944 94.9774C74.4752 94.9553 73.911 94.7132 73.3736 94.1758L71.9594 95.59ZM74.0702 95.8256L73.9139 96.8474L75.8909 97.1497L76.0472 96.1279L74.0702 95.8256ZM74.9225 95.9987C73.9937 95.98 73.2081 95.6451 72.5201 94.9571L71.1059 96.3713C72.149 97.4144 73.4229 97.9689 74.8823 97.9983L74.9225 95.9987ZM78.5065 89.8843C77.7642 89.142 76.842 88.7655 75.7964 88.7986L75.8596 90.7976C76.3366 90.7825 76.7287 90.935 77.0923 91.2985L78.5065 89.8843ZM75.7855 88.799C74.771 88.8421 73.8365 89.2595 72.994 89.9505L74.2624 91.4969C74.8463 91.0179 75.3784 90.8181 75.8705 90.7972L75.7855 88.799ZM72.8231 91.3169C73.0824 91.6688 73.3892 92.0191 73.7385 92.3684L75.1527 90.9542C74.8609 90.6624 74.6227 90.3876 74.4332 90.1305L72.8231 91.3169ZM73.7385 92.3684C74.5 93.1299 75.3331 93.6848 76.2403 93.8476L76.5937 91.8791C76.2508 91.8176 75.7696 91.5711 75.1527 90.9542L73.7385 92.3684ZM76.2403 93.8476C77.0693 93.9964 77.9249 93.8756 78.5666 93.2339L77.1524 91.8197C77.121 91.8511 77.0149 91.9547 76.5937 91.8791L76.2403 93.8476ZM78.5666 93.2339C79.0126 92.7879 79.2322 92.2205 79.2322 91.6012L77.2322 91.6012C77.2322 91.7192 77.2033 91.7688 77.1524 91.8197L78.5666 93.2339ZM79.2312 91.6446C79.2615 90.9485 78.973 90.3508 78.5065 89.8843L77.0923 91.2985C77.2349 91.4411 77.2349 91.5166 77.2331 91.5578L79.2312 91.6446ZM81.1553 88.4136C81.1184 88.3766 81.0855 88.3269 81.0651 88.2712C81.0458 88.2183 81.0461 88.1829 81.0462 88.1792C81.0462 88.1776 81.0455 88.2031 81.028 88.2616C81.0108 88.3196 80.9803 88.3992 80.9294 88.5024L82.7233 89.3867C83.0355 88.7535 83.3211 87.7509 82.5695 86.9993L81.1553 88.4136ZM81.9268 87.9496L77.996 87.553L77.7952 89.5428L81.726 89.9395L81.9268 87.9496ZM78.8954 88.5683L78.9074 87.9793L76.9078 87.9385L76.8958 88.5275L78.8954 88.5683ZM78.0627 88.9468L80.9718 88.49L80.6615 86.5142L77.7525 86.971L78.0627 88.9468ZM80.9626 88.4914C81.1354 88.4659 81.2241 88.4749 81.2529 88.4805C81.2727 88.4844 81.2185 88.4767 81.1553 88.4136L82.5695 86.9993C82.0211 86.4509 81.2628 86.4254 80.6707 86.5128L80.9626 88.4914ZM27.3423 73.7799L27.6617 72.8323L26.6411 72.4883L26.3737 73.5316L27.3423 73.7799ZM26.2484 78.0473L25.5413 78.7544L26.7816 79.9947L27.2171 78.2956L26.2484 78.0473ZM25.1906 76.9895L24.2225 76.739L24.0793 77.2924L24.4835 77.6966L25.1906 76.9895ZM26.1643 73.227L27.1324 73.4775L27.3268 72.7263L26.6474 72.3514L26.1643 73.227ZM24.6377 72.1571L25.2745 71.3862L24.5735 70.8071L23.9306 71.45L24.6377 72.1571ZM22.498 74.2968L21.7908 75.0039L22.498 75.711L23.2051 75.0039L22.498 74.2968ZM21.5844 73.3832L20.8773 72.6761L20.1702 73.3832L20.8773 74.0904L21.5844 73.3832ZM29.9989 64.9687L30.7061 64.2616L29.9989 63.5545L29.2918 64.2616L29.9989 64.9687ZM30.9125 65.8823L31.6196 66.5894L32.3267 65.8823L31.6196 65.1751L30.9125 65.8823ZM27.5587 69.2361L26.8516 68.529L24.4513 70.9293L27.7696 70.2136L27.5587 69.2361ZM31.4294 71.7364L30.4294 71.7223L30.4294 71.7364H31.4294ZM27.715 70.1617L27.8233 71.1558L27.8318 71.1548L27.715 70.1617ZM25.4431 71.3517L24.7359 70.6446L23.9692 71.4114L24.7954 72.1137L25.4431 71.3517ZM28.0275 72.8062L27.8314 73.7869L27.8432 73.7891L28.0275 72.8062ZM30.1312 71.6643L29.1327 71.6088L29.132 71.6222L29.1316 71.6357L30.1312 71.6643ZM30.0371 72.58C29.5774 73.0397 28.8892 73.246 27.6617 72.8323L27.023 74.7276C28.6965 75.2916 30.2763 75.1692 31.4513 73.9942L30.0371 72.58ZM26.3737 73.5316L25.2798 77.799L27.2171 78.2956L28.311 74.0282L26.3737 73.5316ZM26.9556 77.3402L25.8977 76.2824L24.4835 77.6966L25.5413 78.7544L26.9556 77.3402ZM26.1587 77.24L27.1324 73.4775L25.1962 72.9764L24.2225 76.739L26.1587 77.24ZM26.6474 72.3514C26.2521 72.1333 25.7951 71.8162 25.2745 71.3862L24.0008 72.9281C24.5862 73.4117 25.1469 73.8077 25.6812 74.1025L26.6474 72.3514ZM23.9306 71.45L21.7908 73.5897L23.2051 75.0039L25.3448 72.8642L23.9306 71.45ZM23.2051 73.5897L22.2915 72.6761L20.8773 74.0904L21.7908 75.0039L23.2051 73.5897ZM22.2915 74.0904L30.7061 65.6758L29.2918 64.2616L20.8773 72.6761L22.2915 74.0904ZM29.2918 65.6758L30.2054 66.5894L31.6196 65.1751L30.7061 64.2616L29.2918 65.6758ZM30.2054 65.1751L26.8516 68.529L28.2658 69.9432L31.6196 66.5894L30.2054 65.1751ZM27.7696 70.2136C28.7142 70.0098 29.3581 70.2138 29.8688 70.7245L31.283 69.3103C30.2231 68.2503 28.8555 67.9334 27.3479 68.2585L27.7696 70.2136ZM29.8688 70.7245C30.3386 71.1943 30.4323 71.5224 30.4295 71.7223L32.4293 71.7505C32.4425 70.8124 31.9673 69.9946 31.283 69.3103L29.8688 70.7245ZM30.4294 71.7364C30.4294 72.0154 30.3309 72.2862 30.0371 72.58L31.4513 73.9942C32.0712 73.3744 32.4294 72.6114 32.4294 71.7364H30.4294ZM30.4416 70.1037C29.6726 69.3347 28.6846 69.0407 27.5981 69.1685L27.8318 71.1548C28.3802 71.0903 28.7385 71.2291 29.0274 71.5179L30.4416 70.1037ZM27.6067 69.1675C26.5922 69.278 25.705 69.6756 25.0004 70.3802L26.4146 71.7944C26.7679 71.4411 27.2189 71.2216 27.8233 71.1558L27.6067 69.1675ZM25.0004 70.3802L24.7359 70.6446L26.1502 72.0588L26.4146 71.7944L25.0004 70.3802ZM24.7954 72.1137C25.8142 72.9796 26.8301 73.5866 27.8314 73.7868L28.2236 71.8257C27.7023 71.7214 26.9953 71.3587 26.0907 70.5898L24.7954 72.1137ZM27.8432 73.7891C28.7935 73.9673 29.7645 73.8539 30.4777 73.1407L29.0634 71.7265C28.9913 71.7987 28.8002 71.9337 28.2118 71.8234L27.8432 73.7891ZM30.4777 73.1407C30.8575 72.7608 31.1142 72.2717 31.1308 71.6928L29.1316 71.6357C29.1315 71.6376 29.132 71.6372 29.1295 71.6425C29.1259 71.6504 29.1106 71.6794 29.0634 71.7265L30.4777 73.1407ZM31.1296 71.7197C31.1667 71.053 30.8452 70.5073 30.4416 70.1037L29.0274 71.5179C29.1058 71.5963 29.1315 71.6438 29.1372 71.656C29.1396 71.6612 29.1375 71.658 29.1353 71.6474C29.1331 71.6364 29.1319 71.6229 29.1327 71.6088L31.1296 71.7197ZM28.422 78.9947L29.4185 79.0778L28.422 78.9947ZM33.2303 74.523L33.1827 73.5241L33.1821 73.5241L33.2303 74.523ZM37.7862 78.6221L38.4933 79.3292L38.8618 78.9607L38.7708 78.4475L37.7862 78.6221ZM33.5068 82.9015L32.7997 82.1944L32.7644 82.2296L32.7328 82.2682L33.5068 82.9015ZM32.4249 84.2238L31.7732 84.9823L32.5502 85.6498L33.1988 84.857L32.4249 84.2238ZM31.5714 83.4905L30.7454 82.9269L30.2411 83.666L30.9197 84.249L31.5714 83.4905ZM32.4489 82.2043L33.275 82.7678L34.8154 80.51L32.1816 81.2407L32.4489 82.2043ZM29.7443 79.0909L30.7376 79.2064L29.7443 79.0909ZM32.2566 81.3388L32.4338 82.323L32.4415 82.3215L32.2566 81.3388ZM36.4519 78.1292L37.159 78.8363L37.596 78.3993L37.4005 77.813L36.4519 78.1292ZM33.3024 75.7731L33.3878 76.7695L33.3963 76.7687L33.3024 75.7731ZM30.0427 80.7639C29.559 80.2803 29.3631 79.7429 29.4185 79.0778L27.4254 78.9117C27.3206 80.1698 27.7337 81.2833 28.6284 82.1781L30.0427 80.7639ZM29.4185 79.0778C29.472 78.4356 29.8343 77.6743 30.7158 76.7928L29.3016 75.3786C28.2278 76.4524 27.5322 77.6304 27.4254 78.9117L29.4185 79.0778ZM30.7158 76.7928C31.5625 75.946 32.4122 75.5636 33.2785 75.5218L33.1821 73.5241C31.7243 73.5945 30.4263 74.2539 29.3016 75.3786L30.7158 76.7928ZM33.2779 75.5218C34.1778 75.479 34.9045 75.7602 35.5284 76.3841L36.9426 74.9699C35.9156 73.9429 34.6389 73.4548 33.1827 73.5241L33.2779 75.5218ZM35.5284 76.3841C36.2211 77.0768 36.638 77.8742 36.8015 78.7966L38.7708 78.4475C38.5337 77.11 37.9167 75.944 36.9426 74.9699L35.5284 76.3841ZM37.0791 77.915L32.7997 82.1944L34.2139 83.6086L38.4933 79.3292L37.0791 77.915ZM32.7328 82.2682L31.6509 83.5905L33.1988 84.857L34.2807 83.5347L32.7328 82.2682ZM33.0766 83.4653L32.2231 82.732L30.9197 84.249L31.7732 84.9823L33.0766 83.4653ZM32.3975 84.0541L33.275 82.7678L31.6229 81.6407L30.7454 82.9269L32.3975 84.0541ZM32.1816 81.2407C31.2471 81.4999 30.5934 81.3146 30.0427 80.7639L28.6284 82.1781C29.7446 83.2942 31.1665 83.5978 32.7163 83.1679L32.1816 81.2407ZM30.2392 76.2681C29.4309 77.0765 28.8669 77.9785 28.7509 78.9754L30.7376 79.2064C30.7819 78.8248 31.0193 78.3165 31.6534 77.6823L30.2392 76.2681ZM28.7509 78.9754C28.6371 79.9548 28.928 80.8428 29.6262 81.541L31.0404 80.1268C30.7929 79.8793 30.6912 79.6053 30.7376 79.2064L28.7509 78.9754ZM29.6262 81.541C30.3863 82.3011 31.3826 82.5122 32.4338 82.323L32.0794 80.3546C31.5278 80.4539 31.2419 80.3283 31.0404 80.1268L29.6262 81.541ZM32.4415 82.3215C33.5249 82.1177 34.5392 81.4561 35.4881 80.5072L34.0739 79.093C33.2758 79.8911 32.6071 80.2553 32.0717 80.356L32.4415 82.3215ZM35.4881 80.5072L37.159 78.8363L35.7448 77.4221L34.0739 79.093L35.4881 80.5072ZM37.4005 77.813C37.1501 77.0617 36.7376 76.3997 36.1733 75.8354L34.7591 77.2496C35.1083 77.5988 35.3529 77.9946 35.5032 78.4454L37.4005 77.813ZM36.1733 75.8354C35.3653 75.0274 34.3486 74.67 33.2085 74.7776L33.3963 76.7687C33.9551 76.716 34.3809 76.8714 34.7591 77.2496L36.1733 75.8354ZM33.217 74.7768C32.0919 74.8732 31.0969 75.4104 30.2392 76.2681L31.6534 77.6823C32.2543 77.0815 32.83 76.8173 33.3878 76.7695L33.217 74.7768ZM39.174 89.8189L39.0996 90.8161L39.9118 90.8767L40.1355 90.0936L39.174 89.8189ZM35.2793 85.8761L34.2794 85.8602L34.2793 85.8682L35.2793 85.8761ZM39.9193 81.236L39.8135 80.2416L39.812 80.2418L39.9193 81.236ZM44.0545 84.3614L44.5193 85.2468L45.2099 84.8843L45.0264 84.1261L44.0545 84.3614ZM43.0928 84.8663L42.1331 85.1472L42.4762 86.3195L43.5576 85.7517L43.0928 84.8663ZM36.5294 85.9241L35.5327 85.8439L35.5317 85.8553L35.5311 85.8668L36.5294 85.9241ZM39.4625 88.8091L40.424 89.0839L40.7547 87.9266L39.5564 87.8136L39.4625 88.8091ZM39.2484 88.8217C38.4161 88.7596 37.7182 88.4395 37.1163 87.8376L35.7021 89.2518C36.6389 90.1885 37.7842 90.718 39.0996 90.8161L39.2484 88.8217ZM37.1163 87.8376C36.5323 87.2535 36.2735 86.617 36.2792 85.8839L34.2793 85.8682C34.2691 87.1707 34.7635 88.3132 35.7021 89.2518L37.1163 87.8376ZM36.2791 85.8919C36.2897 85.2254 36.6139 84.4651 37.477 83.602L36.0627 82.1878C34.9704 83.2801 34.3009 84.5072 34.2794 85.8602L36.2791 85.8919ZM37.477 83.602C38.3417 82.7372 39.1905 82.3205 40.0266 82.2303L39.812 80.2418C38.4203 80.392 37.1694 81.0812 36.0627 82.1878L37.477 83.602ZM40.0251 82.2304C40.8198 82.1459 41.5396 82.3952 42.2414 83.0971L43.6557 81.6829C42.5785 80.6057 41.2787 80.0858 39.8135 80.2416L40.0251 82.2304ZM42.2414 83.0971C42.6642 83.5199 42.9414 84.0137 43.0825 84.5967L45.0264 84.1261C44.7989 83.1865 44.3388 82.3661 43.6557 81.6829L42.2414 83.0971ZM43.5896 83.476L42.628 83.9809L43.5576 85.7517L44.5193 85.2468L43.5896 83.476ZM44.0525 84.5854C43.8188 83.7867 43.4272 83.0893 42.8623 82.5244L41.4481 83.9386C41.7486 84.2392 41.9822 84.6316 42.1331 85.1472L44.0525 84.5854ZM42.8623 82.5244C42.0621 81.7242 41.0641 81.359 39.9444 81.4933L40.1827 83.4791C40.6658 83.4211 41.0622 83.5527 41.4481 83.9386L42.8623 82.5244ZM39.9444 81.4933C38.8584 81.6236 37.8854 82.1923 37.0244 83.0533L38.4386 84.4675C39.0843 83.8218 39.6659 83.5411 40.1827 83.4791L39.9444 81.4933ZM37.0244 83.0533C36.1932 83.8845 35.6154 84.8155 35.5327 85.8439L37.5262 86.0043C37.5557 85.6383 37.7792 85.1269 38.4386 84.4675L37.0244 83.0533ZM35.5311 85.8668C35.4742 86.8559 35.8182 87.733 36.5195 88.4344L37.9338 87.0202C37.6254 86.7118 37.5045 86.3868 37.5278 85.9815L35.5311 85.8668ZM36.5195 88.4344C37.3141 89.229 38.2722 89.7013 39.3686 89.8047L39.5564 87.8136C38.9539 87.7567 38.4214 87.5078 37.9338 87.0202L36.5195 88.4344ZM38.501 88.5344L38.2125 89.5442L40.1355 90.0936L40.424 89.0839L38.501 88.5344ZM44.7552 96.554L44.048 97.2611L44.7552 97.9682L45.4623 97.2611L44.7552 96.554ZM43.8416 95.6404L43.1345 94.9333L42.4274 95.6404L43.1345 96.3475L43.8416 95.6404ZM45.9933 88.5121L45.8829 87.5182L45.8727 87.5194L45.9933 88.5121ZM43.4088 89.8945L42.7222 89.1675L42.7118 89.1773L42.7017 89.1874L43.4088 89.8945ZM40.7522 92.5511L40.0451 93.2582L40.7522 93.9653L41.4593 93.2582L40.7522 92.5511ZM39.8386 91.6375L39.1315 90.9304L38.4244 91.6375L39.1315 92.3446L39.8386 91.6375ZM48.2532 83.2229L48.9603 82.5158L48.2532 81.8087L47.5461 82.5158L48.2532 83.2229ZM49.1668 84.1365L49.8739 84.8436L50.581 84.1365L49.8739 83.4294L49.1668 84.1365ZM45.5966 87.7067L44.8895 86.9996L42.1607 89.7284L45.8713 88.6682L45.5966 87.7067ZM47.4839 87.6226L47.2571 88.5965L47.2628 88.5978L47.4839 87.6226ZM45.4623 95.8469L44.5487 94.9333L43.1345 96.3475L44.048 97.2611L45.4623 95.8469ZM44.5487 96.3475L48.203 92.6932L46.7888 91.279L43.1345 94.9333L44.5487 96.3475ZM48.203 92.6932C48.8344 92.0618 49.3263 91.3531 49.4587 90.5687C49.6038 89.7086 49.2876 88.9497 48.6959 88.3579L47.2816 89.7722C47.4993 89.9898 47.5057 90.1225 47.4865 90.236C47.4546 90.4253 47.2954 90.7724 46.7888 91.279L48.203 92.6932ZM48.6959 88.3579C47.9511 87.6131 46.9449 87.4002 45.8829 87.5182L46.1037 89.506C46.7727 89.4317 47.0968 89.5874 47.2816 89.7722L48.6959 88.3579ZM45.8727 87.5194C44.7359 87.6575 43.6855 88.2577 42.7222 89.1675L44.0954 90.6215C44.8631 89.8965 45.5357 89.575 46.1139 89.5048L45.8727 87.5194ZM42.7017 89.1874L40.0451 91.844L41.4593 93.2582L44.1159 90.6016L42.7017 89.1874ZM41.4593 91.844L40.5457 90.9304L39.1315 92.3446L40.0451 93.2582L41.4593 91.844ZM40.5457 92.3446L48.9603 83.93L47.5461 82.5158L39.1315 90.9304L40.5457 92.3446ZM47.5461 83.93L48.4597 84.8436L49.8739 83.4294L48.9603 82.5158L47.5461 83.93ZM48.4597 83.4294L44.8895 86.9996L46.3037 88.4138L49.8739 84.8436L48.4597 83.4294ZM45.8713 88.6682C46.4083 88.5148 46.8631 88.5048 47.2571 88.5965L47.7107 86.6486C46.9346 86.4679 46.1312 86.5139 45.3219 86.7452L45.8713 88.6682ZM47.2628 88.5978C47.7049 88.698 48.0212 88.8769 48.2553 89.111L49.6695 87.6968C49.1343 87.1616 48.4649 86.8196 47.7049 86.6473L47.2628 88.5978ZM48.2553 89.111C48.7504 89.6061 48.8633 90.0182 48.8174 90.3915C48.7642 90.824 48.4712 91.4238 47.7024 92.1926L49.1166 93.6068C50.0307 92.6927 50.6713 91.7018 50.8024 90.6356C50.9408 89.5103 50.4887 88.516 49.6695 87.6968L48.2553 89.111ZM47.7024 92.1926L44.048 95.8469L45.4623 97.2611L49.1166 93.6068L47.7024 92.1926ZM51.5976 103.396L50.8905 104.104L51.5976 104.811L52.3047 104.104L51.5976 103.396ZM50.684 102.483L49.9769 101.776L49.2698 102.483L49.9769 103.19L50.684 102.483ZM52.8358 95.3546L52.7253 94.3606L52.7152 94.3619L52.8358 95.3546ZM50.2513 96.737L49.5647 96.0099L49.5543 96.0198L49.5442 96.0299L50.2513 96.737ZM47.5947 99.3936L46.8876 100.101L47.5947 100.808L48.3018 100.101L47.5947 99.3936ZM46.6811 98.48L45.974 97.7729L45.2669 98.48L45.974 99.1871L46.6811 98.48ZM51.4894 93.6717L52.1965 94.3788L52.2318 94.3435L52.2634 94.3049L51.4894 93.6717ZM52.5713 92.3494L53.223 91.5909L52.446 90.9233L51.7974 91.7161L52.5713 92.3494ZM53.4248 93.0826L54.2484 93.6497L54.758 92.9097L54.0765 92.3241L53.4248 93.0826ZM52.415 94.5492L51.5914 93.9821L50.0463 96.2261L52.6762 95.5145L52.415 94.5492ZM54.3384 94.477L54.1173 95.4523L54.3384 94.477ZM55.0978 95.9535C55.5929 96.4486 55.7058 96.8607 55.6599 97.234C55.6067 97.6664 55.3137 98.2662 54.5448 99.0351L55.9591 100.449C56.8731 99.5352 57.5138 98.5442 57.6449 97.4781C57.7833 96.3528 57.3312 95.3585 56.512 94.5393L55.0978 95.9535ZM54.5448 99.0351L50.8905 102.689L52.3047 104.104L55.9591 100.449L54.5448 99.0351ZM52.3047 102.689L51.3911 101.776L49.9769 103.19L50.8905 104.104L52.3047 102.689ZM51.3911 103.19L55.0455 99.5357L53.6313 98.1215L49.9769 101.776L51.3911 103.19ZM55.0455 99.5357C55.6769 98.9043 56.1688 98.1956 56.3011 97.4112C56.4463 96.5511 56.1301 95.7922 55.5383 95.2004L54.1241 96.6146C54.3418 96.8323 54.3482 96.9649 54.329 97.0785C54.2971 97.2678 54.1379 97.6149 53.6313 98.1215L55.0455 99.5357ZM55.5383 95.2004C54.7935 94.4556 53.7874 94.2427 52.7253 94.3607L52.9462 96.3485C53.6151 96.2741 53.9393 96.4298 54.1241 96.6146L55.5383 95.2004ZM52.7152 94.3619C51.5784 94.5 50.528 95.1001 49.5647 96.0099L50.9379 97.464C51.7056 96.739 52.3782 96.4175 52.9564 96.3473L52.7152 94.3619ZM49.5442 96.0299L46.8876 98.6865L48.3018 100.101L50.9584 97.4441L49.5442 96.0299ZM48.3018 98.6865L47.3882 97.7729L45.974 99.1871L46.8876 100.101L48.3018 98.6865ZM47.3882 99.1871L52.1965 94.3788L50.7823 92.9645L45.974 97.7729L47.3882 99.1871ZM52.2634 94.3049L53.3453 92.9826L51.7974 91.7161L50.7155 93.0384L52.2634 94.3049ZM51.9196 93.1079L52.7731 93.8411L54.0765 92.3241L53.223 91.5909L51.9196 93.1079ZM52.6011 92.5155L51.5914 93.9821L53.2387 95.1163L54.2484 93.6497L52.6011 92.5155ZM52.6762 95.5145C53.2229 95.3665 53.6972 95.3571 54.1173 95.4523L54.5594 93.5018C53.7775 93.3245 52.9695 93.3632 52.1538 93.5839L52.6762 95.5145ZM54.1173 95.4523C54.5638 95.5535 54.8745 95.7302 55.0978 95.9535L56.512 94.5393C55.982 94.0093 55.3151 93.6731 54.5594 93.5018L54.1173 95.4523ZM51.9983 109.543L51.1019 109.986L51.5345 110.862L52.4199 110.45L51.9983 109.543ZM51.4815 108.497L51.0525 107.594L50.1349 108.03L50.585 108.94L51.4815 108.497ZM54.5948 107.019L55.0238 107.922L55.3521 107.766L55.5036 107.436L54.5948 107.019ZM58.5737 98.3518L59.2808 97.6447L58.2646 96.6284L57.6649 97.9346L58.5737 98.3518ZM59.5594 99.3375L60.4647 99.7623L60.7629 99.1268L60.2665 98.6304L59.5594 99.3375ZM56.3499 106.177L55.4446 105.753L54.2608 108.275L56.7785 107.081L56.3499 106.177ZM63.1657 102.944L63.8728 102.237L63.3742 101.738L62.7371 102.04L63.1657 102.944ZM64.1274 103.905L64.5489 104.812L65.8456 104.209L64.8345 103.198L64.1274 103.905ZM52.8948 109.1L52.3779 108.054L50.585 108.94L51.1019 109.986L52.8948 109.1ZM51.9104 109.401L55.0238 107.922L54.1659 106.115L51.0525 107.594L51.9104 109.401ZM55.5036 107.436L59.4825 98.769L57.6649 97.9346L53.686 106.602L55.5036 107.436ZM57.8666 99.0589L58.8523 100.045L60.2665 98.6304L59.2808 97.6447L57.8666 99.0589ZM58.6542 98.9127L55.4446 105.753L57.2552 106.602L60.4647 99.7623L58.6542 98.9127ZM56.7785 107.081L63.5943 103.847L62.7371 102.04L55.9213 105.274L56.7785 107.081ZM62.4586 103.651L63.4202 104.613L64.8345 103.198L63.8728 102.237L62.4586 103.651ZM63.7058 102.999L51.5768 108.636L52.4199 110.45L64.5489 104.812L63.7058 102.999Z" fill="#010101" mask="url(#path-2-outside-1_8_58)"/>
<defs>
<linearGradient id="paint0_linear_8_58" x1="50" y1="0" x2="50" y2="160" gradientUnits="userSpaceOnUse">
<stop stop-color="#FF0000"/>
<stop offset="1" stop-color="#990000"/>
</linearGradient>
</defs>
</svg>
